<?xml version="1.0" encoding="iso-8859-1"?>
<!-- Generator: Adobe Illustrator 19.0.0, SVG Export Plug-In . SVG Version: 6.00 Build 0)  -->
<svg version="1.1" id="Layer_1" xmlns="http://www.w3.org/2000/svg" xmlns:xlink="http://www.w3.org/1999/xlink" x="0px" y="0px"
	 viewBox="0 0 512 512" style="enable-background:new 0 0 512 512;" xml:space="preserve">
<g>
	<g>
		<path d="M486.881,111.165H25.119C11.268,111.165,0,122.433,0,136.284v239.432c0,13.851,11.268,25.119,25.119,25.119h461.762
			c13.851,0,25.119-11.268,25.119-25.119V136.284C512,122.433,500.732,111.165,486.881,111.165z M495.967,375.716
			c0,5.01-4.076,9.086-9.086,9.086H25.119c-5.01,0-9.086-4.076-9.086-9.086V136.284c0-5.01,4.076-9.086,9.086-9.086h461.762
			c5.01,0,9.086,4.076,9.086,9.086V375.716z"/>
	</g>
</g>
<g>
	<g>
		<path d="M101.545,224.489V187.78c11.014,2.054,18.171,8.139,18.171,13.706c0,4.427,3.589,8.017,8.017,8.017
			s8.017-3.589,8.017-8.017c0-15.098-14.492-27.298-34.205-29.93v-9.619c0-4.427-3.589-8.017-8.017-8.017s-8.017,3.589-8.017,8.017
			v9.619c-19.713,2.632-34.205,14.831-34.205,29.93c0,21.354,18.87,29.654,34.205,34.718v36.709
			c-11.014-2.054-18.171-8.139-18.171-13.706c0-4.427-3.589-8.017-8.017-8.017s-8.017,3.589-8.017,8.017
			c0,15.098,14.492,27.299,34.205,29.93v9.619c0,4.427,3.589,8.017,8.017,8.017s8.017-3.589,8.017-8.017v-9.619
			c19.713-2.632,34.205-14.832,34.205-29.93C135.749,237.852,116.879,229.552,101.545,224.489z M85.511,219.138
			c-13.678-5.219-18.171-9.94-18.171-17.652c0-5.567,7.157-11.652,18.171-13.706V219.138z M101.545,272.913v-31.358
			c13.678,5.219,18.171,9.94,18.171,17.652C119.716,264.773,112.559,270.859,101.545,272.913z"/>
	</g>
</g>
<g>
	<g>
		<path d="M307.307,162.472H170.489c-4.427,0-8.017,3.589-8.017,8.017s3.589,8.017,8.017,8.017h136.818
			c4.427,0,8.017-3.589,8.017-8.017S311.734,162.472,307.307,162.472z"/>
	</g>
</g>
<g>
	<g>
		<path d="M461.228,162.472h-17.102c-4.427,0-8.017,3.589-8.017,8.017s3.589,8.017,8.017,8.017h17.102
			c4.427,0,8.017-3.589,8.017-8.017S465.655,162.472,461.228,162.472z"/>
	</g>
</g>
<g>
	<g>
		<path d="M409.921,162.472h-17.102c-4.427,0-8.017,3.589-8.017,8.017s3.589,8.017,8.017,8.017h17.102
			c4.427,0,8.017-3.589,8.017-8.017S414.348,162.472,409.921,162.472z"/>
	</g>
</g>
<g>
	<g>
		<path d="M256,230.881h-85.511c-4.427,0-8.017,3.589-8.017,8.017s3.589,8.017,8.017,8.017H256c4.427,0,8.017-3.589,8.017-8.017
			S260.427,230.881,256,230.881z"/>
	</g>
</g>
<g>
	<g>
		<path d="M324.409,196.676H170.489c-4.427,0-8.017,3.589-8.017,8.017s3.589,8.017,8.017,8.017h153.921
			c4.427,0,8.017-3.589,8.017-8.017S328.837,196.676,324.409,196.676z"/>
	</g>
</g>
<g>
	<g>
		<path d="M461.228,230.881h-85.511c-4.427,0-8.017,3.589-8.017,8.017s3.589,8.017,8.017,8.017h85.511
			c4.427,0,8.017-3.589,8.017-8.017S465.655,230.881,461.228,230.881z"/>
	</g>
</g>
<g>
	<g>
		<path d="M461.228,196.676h-34.205c-4.427,0-8.017,3.589-8.017,8.017s3.589,8.017,8.017,8.017h34.205
			c4.427,0,8.017-3.589,8.017-8.017S465.655,196.676,461.228,196.676z"/>
	</g>
</g>
<g>
	<g>
		<path d="M93.528,342.046H59.324c-4.427,0-8.017,3.589-8.017,8.017s3.589,8.017,8.017,8.017h34.205
			c4.427,0,8.017-3.589,8.017-8.017S97.956,342.046,93.528,342.046z"/>
	</g>
</g>
<g>
	<g>
		<path d="M298.756,342.046h-68.409c-4.427,0-8.017,3.589-8.017,8.017s3.589,8.017,8.017,8.017h68.409
			c4.427,0,8.017-3.589,8.017-8.017S303.183,342.046,298.756,342.046z"/>
	</g>
</g>
<g>
	<g>
		<path d="M144.835,342.046h-17.102c-4.427,0-8.017,3.589-8.017,8.017s3.589,8.017,8.017,8.017h17.102
			c4.427,0,8.017-3.589,8.017-8.017S149.262,342.046,144.835,342.046z"/>
	</g>
</g>
<g>
	<g>
		<path d="M196.142,342.046H179.04c-4.427,0-8.017,3.589-8.017,8.017s3.589,8.017,8.017,8.017h17.102
			c4.427,0,8.017-3.589,8.017-8.017S200.569,342.046,196.142,342.046z"/>
	</g>
</g>
<g>
	<g>
		<path d="M467.386,293.623c-2.835-3.401-7.891-3.861-11.291-1.026l-45.682,38.069l-20.477-20.477
			c-3.131-3.131-8.207-3.131-11.337,0l-20.521,20.521v-31.954c0-4.427-3.589-8.017-8.017-8.017s-8.017,3.589-8.017,8.017v51.307
			c0,3.243,1.953,6.165,4.949,7.406c0.992,0.41,2.033,0.61,3.067,0.61c2.086,0,4.137-0.815,5.67-2.348l28.536-28.536l19.985,19.985
			c2.932,2.932,7.616,3.144,10.8,0.49l51.307-42.756C469.762,302.079,470.221,297.024,467.386,293.623z"/>
	</g>
</g>
<g>
</g>
<g>
</g>
<g>
</g>
<g>
</g>
<g>
</g>
<g>
</g>
<g>
</g>
<g>
</g>
<g>
</g>
<g>
</g>
<g>
</g>
<g>
</g>
<g>
</g>
<g>
</g>
<g>
</g>
</svg>
