<?xml version="1.0" standalone="no"?>
<!DOCTYPE svg PUBLIC "-//W3C//DTD SVG 20010904//EN"
 "http://www.w3.org/TR/2001/REC-SVG-20010904/DTD/svg10.dtd">
<svg version="1.0" xmlns="http://www.w3.org/2000/svg"
 width="553.000000pt" height="493.000000pt" viewBox="0 0 553.000000 493.000000"
 preserveAspectRatio="xMidYMid meet">

<g transform="translate(0.000000,493.000000) scale(0.100000,-0.100000)"
fill="#000000" stroke="none">
<path d="M2490 4724 c-14 -2 -56 -9 -95 -15 -605 -97 -1133 -426 -1481 -920
-92 -132 -160 -253 -215 -379 -22 -52 -45 -104 -50 -115 -30 -66 -85 -269
-115 -425 -21 -110 -30 -502 -15 -620 72 -545 287 -980 667 -1351 331 -321
734 -523 1214 -605 133 -23 500 -26 635 -5 331 50 619 155 885 321 344 215
633 533 810 890 63 126 89 187 119 278 90 275 116 442 115 737 0 240 -12 334
-66 545 -203 794 -837 1419 -1638 1614 -169 41 -235 48 -490 51 -140 2 -266 1
-280 -1z m248 -1882 l2 -764 -352 5 c-393 5 -408 7 -553 77 -184 88 -308 256
-360 483 -21 93 -20 311 1 408 32 145 129 313 227 392 102 83 243 143 372 157
39 4 203 7 365 6 l295 -1 3 -763z m841 739 c206 -61 345 -174 433 -354 64
-133 73 -179 72 -392 0 -186 -1 -192 -31 -277 -42 -121 -85 -190 -174 -280
-60 -60 -95 -85 -160 -116 -153 -74 -170 -76 -559 -77 l-345 0 -3 750 c-1 413
0 756 3 764 4 11 64 12 348 8 313 -4 348 -6 416 -26z m-398 -1693 c0 -7 1 -69
2 -137 1 -73 6 -126 12 -127 6 -2 42 26 80 61 101 93 131 87 38 -7 l-72 -73
74 -80 c41 -44 75 -83 75 -87 1 -27 -43 3 -108 72 -41 45 -80 79 -86 77 -13
-4 -13 -9 -15 -94 -1 -49 -4 -63 -16 -63 -13 0 -15 33 -15 235 0 202 2 235 15
235 8 0 15 -6 16 -12z m-1655 -22 c55 -26 86 -61 109 -127 44 -123 -20 -266
-133 -299 -20 -6 -82 -10 -137 -8 l-100 3 -3 215 c-1 118 0 220 2 227 4 9 34
13 108 13 87 0 111 -4 154 -24z m829 -11 c116 -72 138 -253 43 -360 -45 -52
-95 -66 -218 -63 l-105 3 -3 215 c-1 118 0 221 3 228 4 11 30 13 118 10 106
-3 117 -5 162 -33z m1155 -55 l0 -60 50 0 c49 0 66 -12 34 -24 -9 -3 -31 -6
-50 -6 l-34 0 0 -114 c0 -130 6 -141 64 -130 38 7 47 -4 21 -26 -23 -19 -81
-16 -105 5 -18 16 -20 30 -20 141 0 118 -1 123 -22 126 -30 4 -34 26 -6 30 18
2 24 10 26 38 4 58 12 80 27 80 12 0 15 -14 15 -60z m-1607 -54 c41 -17 70
-59 71 -105 l1 -36 -119 -3 -118 -3 7 -37 c3 -20 13 -47 21 -60 28 -43 100
-55 156 -26 43 22 59 3 20 -25 -42 -30 -132 -29 -174 1 -65 46 -86 150 -45
228 36 70 107 97 180 66z m820 0 c41 -17 67 -55 70 -104 l2 -37 -119 -3 -119
-3 6 -37 c14 -84 81 -120 165 -89 58 20 78 6 31 -22 -24 -15 -51 -21 -91 -21
-50 0 -62 4 -92 30 -24 22 -38 45 -46 80 -35 146 70 258 193 206z m303 -1 c20
-8 34 -20 32 -26 -4 -13 -8 -13 -57 2 -54 16 -96 -4 -96 -46 0 -25 6 -33 40
-48 93 -42 110 -53 119 -79 22 -62 -31 -121 -109 -121 -49 0 -95 19 -95 40 0
16 5 16 54 -1 48 -17 84 -8 109 26 28 37 11 60 -63 87 -72 26 -100 51 -100 87
0 38 18 64 53 79 42 18 70 18 113 0z m828 1 c76 -32 110 -151 68 -238 -28 -56
-65 -78 -135 -78 -49 0 -60 4 -90 33 -58 55 -71 157 -29 230 19 31 85 67 125
67 15 0 43 -6 61 -14z m381 -10 c51 -33 71 -145 40 -219 -24 -58 -67 -87 -130
-87 -30 0 -57 5 -60 10 -3 6 -13 10 -21 10 -11 0 -14 -15 -14 -65 0 -51 -3
-65 -15 -65 -8 0 -15 3 -15 8 -4 71 -6 400 -2 410 7 20 32 14 32 -9 0 -20 0
-20 28 -1 15 10 34 22 42 25 24 10 89 0 115 -17z"/>
<path d="M2074 3500 c-187 -27 -336 -133 -415 -295 -51 -104 -69 -176 -76
-305 -17 -318 96 -552 319 -658 110 -54 175 -62 472 -62 l246 0 0 665 0 665
-247 -1 c-137 -1 -271 -5 -299 -9z"/>
<path d="M2930 2845 l0 -667 288 4 c238 4 296 8 342 22 267 86 410 309 410
639 0 326 -139 549 -395 634 -77 26 -89 27 -362 31 l-283 4 0 -667z"/>
<path d="M1300 1660 l0 -190 93 0 c109 0 150 17 183 75 58 100 34 222 -55 282
-29 20 -47 23 -127 23 l-94 0 0 -190z"/>
<path d="M2110 1660 l0 -190 93 0 c71 0 100 4 127 19 118 62 111 284 -11 346
-18 10 -59 15 -119 15 l-90 0 0 -190z"/>
<path d="M1803 1716 c-32 -15 -53 -42 -53 -70 0 -13 15 -16 95 -16 87 0 95 2
95 19 0 29 -41 70 -75 76 -16 3 -44 -1 -62 -9z"/>
<path d="M2624 1721 c-26 -12 -54 -49 -54 -73 0 -16 11 -18 95 -18 87 0 95 2
95 19 0 52 -82 95 -136 72z"/>
<path d="M3764 1723 c-80 -15 -107 -182 -39 -240 43 -37 125 -27 154 19 7 11
15 44 18 72 7 71 -15 122 -61 141 -20 8 -39 14 -43 14 -4 -1 -18 -4 -29 -6z"/>
<path d="M4114 1716 c-50 -22 -64 -51 -64 -134 0 -64 3 -76 25 -97 35 -36 94
-34 137 4 32 28 33 32 33 105 0 67 -3 78 -25 100 -32 32 -67 39 -106 22z"/>
</g>
</svg>
